<svg width="24" height="24" viewBox="0 0 24 24" fill="none" xmlns="http://www.w3.org/2000/svg">
<path d="M14.7393 11.3674L15.2142 11.4948C15.4421 11.5559 15.6005 11.7625 15.6005 11.9985C15.6005 12.2344 15.4421 12.441 15.2142 12.5021L14.7393 12.6295C12.7349 13.1673 11.1693 14.7329 10.6316 16.7372L10.5042 17.2121C10.443 17.44 10.2365 17.5985 10.0005 17.5985C9.76455 17.5985 9.558 17.44 9.49686 17.2121C8.88026 14.9139 7.08496 13.1187 4.78671 12.5021C4.55882 12.4409 4.40038 12.2344 4.40038 11.9984C4.40038 11.7625 4.55882 11.5559 4.78671 11.4948C7.08497 10.8782 8.88025 9.08302 9.49685 6.78477C9.55799 6.55688 9.76454 6.39844 10.0005 6.39844C10.2365 6.39844 10.443 6.55688 10.5042 6.78477L10.6316 7.2597C11.1693 9.26404 12.7349 10.8296 14.7393 11.3674Z" stroke="#E9E9E9" stroke-width="0.8" stroke-linejoin="round"/>
<path d="M16.3691 4.5918C16.4142 4.46991 16.5858 4.46991 16.6309 4.5918L16.9805 5.53418C17.098 5.85134 17.3479 6.10124 17.665 6.21875L18.6074 6.56836C18.7293 6.61346 18.7293 6.78498 18.6074 6.83008L17.665 7.17969C17.3479 7.29719 17.098 7.5471 16.9805 7.86426L16.6309 8.80664C16.5858 8.92853 16.4142 8.92853 16.3691 8.80664L16.0195 7.86426C15.902 7.5471 15.6521 7.29719 15.335 7.17969L14.3926 6.83008C14.2707 6.78498 14.2707 6.61346 14.3926 6.56836L15.335 6.21875C15.6521 6.10125 15.902 5.85134 16.0195 5.53418L16.3691 4.5918Z" stroke="#E9E9E9" stroke-width="0.72"/>
<path d="M16.4307 14.9795C16.4888 14.8232 16.7104 14.8232 16.7686 14.9795L16.9824 15.5576C17.0959 15.8639 17.3373 16.1053 17.6436 16.2188L18.2217 16.4326C18.378 16.4907 18.378 16.7124 18.2217 16.7705L17.6436 16.9844C17.3373 17.0978 17.0959 17.3392 16.9824 17.6455L16.7686 18.2236C16.7104 18.38 16.4888 18.38 16.4307 18.2236L16.2168 17.6455C16.1033 17.3392 15.862 17.0978 15.5557 16.9844L14.9775 16.7705C14.8212 16.7124 14.8212 16.4907 14.9775 16.4326L15.5557 16.2188C15.862 16.1053 16.1033 15.8639 16.2168 15.5576L16.4307 14.9795Z" stroke="#E9E9E9" stroke-width="0.64"/>
</svg>
