<svg width="32" height="32" viewBox="0 0 32 32" fill="none" xmlns="http://www.w3.org/2000/svg">
<path d="M18.7393 15.3674L19.2142 15.4948C19.4421 15.5559 19.6005 15.7625 19.6005 15.9985C19.6005 16.2344 19.4421 16.441 19.2142 16.5021L18.7393 16.6295C16.7349 17.1673 15.1693 18.7329 14.6316 20.7372L14.5042 21.2121C14.443 21.44 14.2365 21.5985 14.0005 21.5985C13.7646 21.5985 13.558 21.44 13.4969 21.2121C12.8803 18.9139 11.085 17.1187 8.78671 16.5021C8.55882 16.4409 8.40038 16.2344 8.40038 15.9984C8.40038 15.7625 8.55882 15.5559 8.78671 15.4948C11.085 14.8782 12.8802 13.083 13.4968 10.7848C13.558 10.5569 13.7645 10.3984 14.0005 10.3984C14.2365 10.3984 14.443 10.5569 14.5042 10.7848L14.6316 11.2597C15.1693 13.264 16.7349 14.8296 18.7393 15.3674Z" stroke="#E9E9E9" stroke-width="0.8" stroke-linejoin="round"/>
<path d="M20.3691 8.5918C20.4142 8.46991 20.5858 8.46991 20.6309 8.5918L20.9805 9.53418C21.098 9.85134 21.3479 10.1012 21.665 10.2188L22.6074 10.5684C22.7293 10.6135 22.7293 10.785 22.6074 10.8301L21.665 11.1797C21.3479 11.2972 21.098 11.5471 20.9805 11.8643L20.6309 12.8066C20.5858 12.9285 20.4142 12.9285 20.3691 12.8066L20.0195 11.8643C19.902 11.5471 19.6521 11.2972 19.335 11.1797L18.3926 10.8301C18.2707 10.785 18.2707 10.6135 18.3926 10.5684L19.335 10.2188C19.6521 10.1012 19.902 9.85134 20.0195 9.53418L20.3691 8.5918Z" stroke="#E9E9E9" stroke-width="0.72"/>
<path d="M20.4307 18.9795C20.4888 18.8232 20.7104 18.8232 20.7686 18.9795L20.9824 19.5576C21.0959 19.8639 21.3373 20.1053 21.6436 20.2188L22.2217 20.4326C22.378 20.4907 22.378 20.7124 22.2217 20.7705L21.6436 20.9844C21.3373 21.0978 21.0959 21.3392 20.9824 21.6455L20.7686 22.2236C20.7104 22.38 20.4888 22.38 20.4307 22.2236L20.2168 21.6455C20.1033 21.3392 19.862 21.0978 19.5557 20.9844L18.9775 20.7705C18.8212 20.7124 18.8212 20.4907 18.9775 20.4326L19.5557 20.2188C19.862 20.1053 20.1033 19.8639 20.2168 19.5576L20.4307 18.9795Z" stroke="#E9E9E9" stroke-width="0.64"/>
</svg>
