<svg width="24" height="24" viewBox="0 0 24 24" fill="none" xmlns="http://www.w3.org/2000/svg">
<path d="M5.50148 10.2467C5.58973 10.2332 5.68028 10.2262 5.77266 10.2262H18.2273C18.3197 10.2262 18.4103 10.2332 18.4985 10.2467M5.50148 10.2467C4.55938 10.3907 3.87868 11.2729 4.01815 12.2492L4.69332 16.9754C4.81805 17.8485 5.56583 18.4971 6.44783 18.4971H17.5522C18.4342 18.4971 19.1819 17.8485 19.3067 16.9754L19.9819 12.2492C20.1213 11.2729 19.4406 10.3907 18.4985 10.2467M5.50148 10.2467V7.27232C5.50148 6.2935 6.29497 5.5 7.2738 5.5H10.329C10.6424 5.5 10.9429 5.62448 11.1645 5.84607L12.8355 7.51703C13.0571 7.73862 13.3576 7.8631 13.671 7.8631H16.7262C17.705 7.8631 18.4985 8.6566 18.4985 9.63543V10.2467" stroke="#E9E9E9" stroke-width="0.9" stroke-linecap="round" stroke-linejoin="round"/>
</svg>
