<svg width="32" height="32" viewBox="0 0 32 32" fill="none" xmlns="http://www.w3.org/2000/svg">
<path d="M9.19922 10.1371C9.19922 9.61914 9.61914 9.19922 10.1371 9.19922H13.4198C13.9378 9.19922 14.3577 9.61914 14.3577 10.1371V13.4198C14.3577 13.9378 13.9378 14.3577 13.4198 14.3577H10.1371C9.61914 14.3577 9.19922 13.9378 9.19922 13.4198V10.1371Z" stroke="#E9E9E9" stroke-width="0.9" stroke-linecap="round" stroke-linejoin="round"/>
<path d="M9.19922 18.5785C9.19922 18.0605 9.61914 17.6406 10.1371 17.6406H13.4198C13.9378 17.6406 14.3577 18.0605 14.3577 18.5785V21.8612C14.3577 22.3792 13.9378 22.7991 13.4198 22.7991H10.1371C9.61914 22.7991 9.19922 22.3792 9.19922 21.8612V18.5785Z" stroke="#E9E9E9" stroke-width="0.9" stroke-linecap="round" stroke-linejoin="round"/>
<path d="M17.6406 10.1371C17.6406 9.61914 18.0605 9.19922 18.5785 9.19922H21.8612C22.3792 9.19922 22.7991 9.61914 22.7991 10.1371V13.4198C22.7991 13.9378 22.3792 14.3577 21.8612 14.3577H18.5785C18.0605 14.3577 17.6406 13.9378 17.6406 13.4198V10.1371Z" stroke="#E9E9E9" stroke-width="0.9" stroke-linecap="round" stroke-linejoin="round"/>
<path d="M17.6406 18.5785C17.6406 18.0605 18.0605 17.6406 18.5785 17.6406H21.8612C22.3792 17.6406 22.7991 18.0605 22.7991 18.5785V21.8612C22.7991 22.3792 22.3792 22.7991 21.8612 22.7991H18.5785C18.0605 22.7991 17.6406 22.3792 17.6406 21.8612V18.5785Z" stroke="#E9E9E9" stroke-width="0.9" stroke-linecap="round" stroke-linejoin="round"/>
</svg>
