<svg width="16" height="16" viewBox="0 0 16 16" fill="none" xmlns="http://www.w3.org/2000/svg">
<path d="M1.19922 2.13713C1.19922 1.61914 1.61914 1.19922 2.13713 1.19922H5.41982C5.93781 1.19922 6.35773 1.61914 6.35773 2.13713V5.41982C6.35773 5.93781 5.93781 6.35773 5.41982 6.35773H2.13713C1.61914 6.35773 1.19922 5.93781 1.19922 5.41982V2.13713Z" stroke="#E9E9E9" stroke-width="0.9" stroke-linecap="round" stroke-linejoin="round"/>
<path d="M1.19922 10.5785C1.19922 10.0605 1.61914 9.64062 2.13713 9.64062H5.41982C5.93781 9.64062 6.35773 10.0605 6.35773 10.5785V13.8612C6.35773 14.3792 5.93781 14.7991 5.41982 14.7991H2.13713C1.61914 14.7991 1.19922 14.3792 1.19922 13.8612V10.5785Z" stroke="#E9E9E9" stroke-width="0.9" stroke-linecap="round" stroke-linejoin="round"/>
<path d="M9.64062 2.13713C9.64062 1.61914 10.0605 1.19922 10.5785 1.19922H13.8612C14.3792 1.19922 14.7991 1.61914 14.7991 2.13713V5.41982C14.7991 5.93781 14.3792 6.35773 13.8612 6.35773H10.5785C10.0605 6.35773 9.64062 5.93781 9.64062 5.41982V2.13713Z" stroke="#E9E9E9" stroke-width="0.9" stroke-linecap="round" stroke-linejoin="round"/>
<path d="M9.64062 10.5785C9.64062 10.0605 10.0605 9.64062 10.5785 9.64062H13.8612C14.3792 9.64062 14.7991 10.0605 14.7991 10.5785V13.8612C14.7991 14.3792 14.3792 14.7991 13.8612 14.7991H10.5785C10.0605 14.7991 9.64062 14.3792 9.64062 13.8612V10.5785Z" stroke="#E9E9E9" stroke-width="0.9" stroke-linecap="round" stroke-linejoin="round"/>
</svg>
