<svg width="24" height="24" viewBox="0 0 24 24" fill="none" xmlns="http://www.w3.org/2000/svg">
<path d="M12.9231 16C12.9231 16.1826 12.8689 16.361 12.7675 16.5128C12.6661 16.6646 12.5219 16.7829 12.3532 16.8528C12.1846 16.9227 11.999 16.941 11.8199 16.9053C11.6409 16.8697 11.4764 16.7818 11.3473 16.6527C11.2182 16.5236 11.1303 16.3591 11.0947 16.1801C11.059 16.001 11.0773 15.8154 11.1472 15.6468C11.2171 15.4781 11.3354 15.3339 11.4872 15.2325C11.639 15.1311 11.8174 15.0769 12 15.0769C12.2448 15.0769 12.4796 15.1742 12.6527 15.3473C12.8258 15.5204 12.9231 15.7552 12.9231 16ZM12 7.69231C10.3031 7.69231 8.92308 8.93461 8.92308 10.4615V10.7692C8.92308 10.9324 8.98791 11.089 9.10332 11.2044C9.21873 11.3198 9.37525 11.3846 9.53846 11.3846C9.70167 11.3846 9.8582 11.3198 9.97361 11.2044C10.089 11.089 10.1538 10.9324 10.1538 10.7692V10.4615C10.1538 9.61538 10.9823 8.92308 12 8.92308C13.0177 8.92308 13.8462 9.61538 13.8462 10.4615C13.8462 11.3077 13.0177 12 12 12C11.8368 12 11.6803 12.0648 11.5649 12.1802C11.4495 12.2956 11.3846 12.4522 11.3846 12.6154V13.2308C11.3846 13.394 11.4495 13.5505 11.5649 13.6659C11.6803 13.7813 11.8368 13.8462 12 13.8462C12.1632 13.8462 12.3197 13.7813 12.4351 13.6659C12.5506 13.5505 12.6154 13.394 12.6154 13.2308V13.1754C14.0185 12.9177 15.0769 11.7985 15.0769 10.4615C15.0769 8.93461 13.6969 7.69231 12 7.69231ZM20 12C20 13.5822 19.5308 15.129 18.6518 16.4446C17.7727 17.7602 16.5233 18.7855 15.0615 19.391C13.5997 19.9965 11.9911 20.155 10.4393 19.8463C8.88743 19.5376 7.46197 18.7757 6.34315 17.6569C5.22433 16.538 4.4624 15.1126 4.15372 13.5607C3.84504 12.0089 4.00347 10.4003 4.60897 8.93853C5.21447 7.47672 6.23985 6.22729 7.55544 5.34824C8.87103 4.46919 10.4178 4 12 4C14.121 4.00224 16.1546 4.84581 17.6544 6.34562C19.1542 7.84542 19.9978 9.87895 20 12ZM18.7692 12C18.7692 10.6612 18.3722 9.35241 17.6284 8.23922C16.8846 7.12602 15.8274 6.25839 14.5905 5.74605C13.3536 5.2337 11.9925 5.09965 10.6794 5.36084C9.36629 5.62203 8.16013 6.26674 7.21343 7.21343C6.26674 8.16012 5.62203 9.36629 5.36084 10.6794C5.09965 11.9925 5.2337 13.3536 5.74605 14.5905C6.2584 15.8274 7.12603 16.8846 8.23922 17.6284C9.35241 18.3722 10.6612 18.7692 12 18.7692C13.7947 18.7672 15.5153 18.0534 16.7843 16.7843C18.0534 15.5153 18.7672 13.7947 18.7692 12Z" fill="#6B6C6D"/>
</svg>
